<?xml version="1.0" encoding="utf-8"?>

<!DOCTYPE svg PUBLIC "-//W3C//DTD SVG 1.1//EN" "http://www.w3.org/Graphics/SVG/1.1/DTD/svg11.dtd">
<!-- Uploaded to: SVG Repo, www.svgrepo.com, Generator: SVG Repo Mixer Tools -->
<svg version="1.1" id="_x32_" xmlns="http://www.w3.org/2000/svg" xmlns:xlink="http://www.w3.org/1999/xlink" 
	 width="800px" height="800px" viewBox="0 0 512 512"  xml:space="preserve">
<style type="text/css">
<![CDATA[
	.st0{fill:#000000;}
]]>
</style>
<g>
	<path class="st0" d="M379.969,327.688c-11.703,0-21.203,9.484-21.203,21.188c0,11.719,9.5,21.219,21.203,21.219
		c11.719,0,21.203-9.5,21.203-21.219C401.172,337.172,391.688,327.688,379.969,327.688z"/>
	<path class="st0" d="M408.219,308.656c-7.578-5.109-16.766-8.125-26.547-8.125H47.5c-6.547,0-12.813,1.344-18.5,3.75
		c-8.531,3.625-15.766,9.625-20.875,17.203C3,329.063-0.015,338.234,0,348.031c-0.016,3.531,0.5,6.938,1.391,10.141
		c1.578,5.609,4.25,10.563,7.375,14.922c4.688,6.547,10.422,11.875,15.703,16.25c2.656,2.188,5.219,4.125,7.469,5.813
		c2.25,1.672,4.219,3.094,5.641,4.188l0.109,0.094l8.969,6.391l0.078,0.063c7.109,5.047,14.938,8.828,23.109,11.344
		c8.203,2.5,16.734,3.734,25.328,3.734H334c8.578,0,17.109-1.234,25.297-3.734c8.188-2.516,16.016-6.297,23.109-11.344l9.047-6.453
		l0.125-0.094c1.078-0.828,2.484-1.859,4.078-3.031c2.813-2.078,6.219-4.625,9.781-7.594c5.328-4.469,11.016-9.906,15.609-16.563
		c2.297-3.344,4.297-7.016,5.765-11.047c1.469-4.016,2.359-8.438,2.359-13.078c0-6.531-1.344-12.797-3.75-18.469
		C421.797,321.031,415.782,313.781,408.219,308.656z M409.782,353.156c-0.813,2.984-2.406,6.047-4.578,9.094
		c-3.25,4.531-7.813,8.938-12.406,12.703c-2.297,1.891-4.578,3.641-6.719,5.234c-2.047,1.5-3.906,2.875-5.594,4.156l0,0
		l-8.906,6.359l0.016-0.016c-5.406,3.844-11.406,6.75-17.766,8.703s-13.047,2.922-19.828,2.922H95.172
		c-6.781,0-13.5-0.969-19.844-2.922c-6.344-1.938-12.328-4.844-17.703-8.656l-8.953-6.391l0,0c-1.266-0.969-2.625-1.953-4.109-3.063
		c-2.734-2.016-5.813-4.313-8.875-6.875c-4.578-3.813-9.078-8.25-12.203-12.828c-1.563-2.266-2.797-4.563-3.594-6.828
		c-0.828-2.25-1.234-4.438-1.25-6.719c0.016-4,0.813-7.75,2.266-11.203c2.203-5.156,5.875-9.578,10.484-12.703
		s10.109-4.922,16.109-4.922h334.172c3.984,0,7.75,0.797,11.203,2.266c5.156,2.188,9.594,5.859,12.703,10.469
		c3.125,4.625,4.922,10.109,4.922,16.094C410.5,349.766,410.266,351.453,409.782,353.156z"/>
	<path class="st0" d="M49.172,327.688c-11.703,0-21.188,9.484-21.188,21.188c0,11.719,9.484,21.219,21.188,21.219
		c11.719,0,21.203-9.5,21.203-21.219C70.375,337.172,60.891,327.688,49.172,327.688z"/>
	<path class="st0" d="M112.797,330.234c-16.859,0-30.547,13.672-30.547,30.516c0,16.875,13.688,30.531,30.547,30.531
		s30.531-13.656,30.531-30.531C143.329,343.906,129.657,330.234,112.797,330.234z"/>
	<path class="st0" d="M180.657,330.234c-16.875,0-30.531,13.672-30.531,30.516c0,16.875,13.656,30.531,30.531,30.531
		c16.859,0,30.531-13.656,30.531-30.531C211.188,343.906,197.516,330.234,180.657,330.234z"/>
	<path class="st0" d="M248.5,330.234c-16.844,0-30.531,13.672-30.531,30.516c0,16.875,13.688,30.531,30.531,30.531
		c16.859,0,30.531-13.656,30.531-30.531C279.032,343.906,265.36,330.234,248.5,330.234z"/>
	<path class="st0" d="M316.36,330.234c-16.859,0-30.531,13.672-30.531,30.516c0,16.875,13.672,30.531,30.531,30.531
		s30.531-13.656,30.531-30.531C346.891,343.906,333.219,330.234,316.36,330.234z"/>
	<polygon class="st0" points="6.782,232.266 6.782,290.781 430.859,290.781 430.859,269.578 350.282,232.266 	"/>
	<polygon class="st0" points="243.344,170.156 189.672,150.375 60.157,150.375 60.157,220.328 243.344,220.328 	"/>
	<rect x="92.204" y="91.031" class="st0" width="13.625" height="54.438"/>
	<rect x="254.813" y="175.844" class="st0" width="12.25" height="38.109"/>
	<rect x="277.266" y="185.141" class="st0" width="169.968" height="19.516"/>
	<polygon class="st0" points="457.906,181.688 457.906,208.125 512,210.219 512,179.594 	"/>
</g>
</svg>